<svg width="65" height="61" viewBox="0 0 65 61" fill="none" xmlns="http://www.w3.org/2000/svg">
<rect x="0.656982" y="0.344055" width="63.4882" height="60.2043" rx="9.71689" fill="white"/>
<path d="M26.9185 34.0694C26.3368 34.0694 25.779 34.2603 25.3677 34.6001C24.9565 34.9398 24.7254 35.4006 24.7254 35.8811V46.7507C24.7254 47.2312 24.9565 47.692 25.3677 48.0317C25.779 48.3714 26.3368 48.5623 26.9185 48.5623C27.5001 48.5623 28.0579 48.3714 28.4692 48.0317C28.8805 47.692 29.1115 47.2312 29.1115 46.7507V35.8811C29.1115 35.4006 28.8805 34.9398 28.4692 34.6001C28.0579 34.2603 27.5001 34.0694 26.9185 34.0694ZM15.9532 41.3159C15.3716 41.3159 14.8138 41.5067 14.4025 41.8465C13.9912 42.1862 13.7602 42.647 13.7602 43.1275V46.7507C13.7602 47.2312 13.9912 47.692 14.4025 48.0317C14.8138 48.3714 15.3716 48.5623 15.9532 48.5623C16.5349 48.5623 17.0927 48.3714 17.5039 48.0317C17.9152 47.692 18.1463 47.2312 18.1463 46.7507V43.1275C18.1463 42.647 17.9152 42.1862 17.5039 41.8465C17.0927 41.5067 16.5349 41.3159 15.9532 41.3159ZM48.8489 12.3302C48.2673 12.3302 47.7095 12.521 47.2982 12.8608C46.887 13.2005 46.6559 13.6613 46.6559 14.1418V46.7507C46.6559 47.2312 46.887 47.692 47.2982 48.0317C47.7095 48.3714 48.2673 48.5623 48.8489 48.5623C49.4306 48.5623 49.9884 48.3714 50.3997 48.0317C50.8109 47.692 51.042 47.2312 51.042 46.7507V14.1418C51.042 13.6613 50.8109 13.2005 50.3997 12.8608C49.9884 12.521 49.4306 12.3302 48.8489 12.3302ZM37.8837 25.0114C37.3021 25.0114 36.7443 25.2023 36.333 25.542C35.9217 25.8818 35.6907 26.3426 35.6907 26.823V46.7507C35.6907 47.2312 35.9217 47.692 36.333 48.0317C36.7443 48.3714 37.3021 48.5623 37.8837 48.5623C38.4653 48.5623 39.0232 48.3714 39.4344 48.0317C39.8457 47.692 40.0768 47.2312 40.0768 46.7507V26.823C40.0768 26.3426 39.8457 25.8818 39.4344 25.542C39.0232 25.2023 38.4653 25.0114 37.8837 25.0114Z" fill="#854FE3"/>
</svg>
